#!OML:ASF X:\für Bonn\!DataBase\2005_08_10_Bjorn_Final\c3d\bjorn.ASF
:FULLY-SPECIFIED
:DEGREES
373
root 2.17235 18.748 7.88789 -183.007 8.03733 177.594
lowerback 3.14976 0.203687 3.30262
upperback 12.3834 1.88996 -0.695716
thorax 11.6161 1.98537 -2.32125
lowerneck -0.929217 -0.680646 5.45638
upperneck 25.6344 3.55028 -8.9164
head 8.25732 2.39745 -3.55688
rclavicle -2.8625e-014 -1.19271e-015
rhumerus -383.112 -8.2258 283.418
rradius 24.5164
rwrist 22.38
rhand -6.63724 11.8951
rfingers 7.12502
rthumb 19.2197 -17.1752
lclavicle -2.8625e-014 -1.19271e-015
lhumerus -49.1104 -44.2812 95.0251
lradius 36.4713
lwrist -29.1417
lhand 7.18201 7.0614
lfingers 7.12502
lthumb 32.4489 34.1763
rfemur -15.9543 -2.34367 14.5186
rtibia 40.4518
rfoot -18.6341 14.6896
rtoes 0.687343
lfemur -10.1072 -0.0465448 -15.6621
ltibia 51.921
lfoot -16.7237 3.70303
ltoes -24.5955
374
root 2.15771 18.7634 7.94086 -182.927 7.89771 177.714
lowerback 2.87235 0.238208 3.40181
upperback 12.3217 1.8914 -0.628918
thorax 11.7133 1.98078 -2.299
lowerneck -0.8233 -0.766107 5.62307
upperneck 25.7366 3.50605 -9.06781
head 8.27157 2.39616 -3.64232
rclavicle 4.37326e-015 -3.97569e-016
rhumerus -382.558 -11.1197 283.722
rradius 24.1118
rwrist 22.0406
rhand -7.37838 11.2416
rfingers 7.12502
rthumb 18.5069 -17.8981
lclavicle 4.37326e-015 -3.97569e-016
lhumerus -45.8458 -41.952 92.3528
lradius 35.0708
lwrist -31.94
lhand 3.38542 6.65362
lfingers 7.12502
lthumb 28.8288 34.4467
rfemur -16.0641 -2.53772 14.6202
rtibia 40.1785
rfoot -18.295 14.6666
rtoes 0.797364
lfemur -9.28445 0.388963 -15.7131
ltibia 51.4859
lfoot -16.8385 3.67983
ltoes -25.7714
375
root 2.14316 18.7797 7.99477 -182.833 7.73113 177.821
lowerback 2.56913 0.247565 3.43915
upperback 12.2764 1.86116 -0.549866
thorax 11.8401 1.95535 -2.22998
lowerneck -0.814904 -0.821361 5.69968
upperneck 25.8672 3.49173 -9.16541
head 8.31473 2.39976 -3.69146
rclavicle -3.20043e-014 6.36111e-015
rhumerus -382.015 -13.8381 283.964
rradius 23.8072
rwrist 21.5335
rhand -8.33814 10.8461
rfingers 7.12502
rthumb 17.5835 -18.3788
lclavicle -3.20043e-014 6.36111e-015
lhumerus -42.7306 -39.2538 89.8047
lradius 33.7789
lwrist -34.2819
lhand -0.469963 6.01663
lfingers 7.12502
lthumb 25.1402 34.3813
rfemur -16.1798 -2.73505 14.7078
rtibia 39.898
rfoot -17.9622 14.622
rtoes 0.83282
lfemur -8.4714 0.827561 -15.7434
ltibia 50.9402
lfoot -16.8867 3.59876
ltoes -26.6015
376
root 2.12704 18.7974 8.04828 -182.73 7.56481 177.892
lowerback 2.27125 0.261449 3.46054
upperback 12.201 1.83343 -0.501913
thorax 11.9298 1.92782 -2.1874
lowerneck -0.696678 -0.879844 5.75785
upperneck 25.9637 3.47718 -9.23789
head 8.32568 2.40908 -3.72858
rclavicle -2.98177e-015 -3.57812e-015
rhumerus -381.564 -16.6186 284.146
rradius 23.5963
rwrist 20.9133
rhand -9.24994 10.6764
rfingers 7.12502
rthumb 16.7058 -18.6247
lclavicle -2.98177e-015 -3.57812e-015
lhumerus -39.9116 -36.4055 87.4938
lradius 32.6509
lwrist -35.6017
lhand -3.98345 5.08239
lfingers 7.12502
lthumb 21.7698 33.8781
rfemur -16.3158 -2.95849 14.7495
rtibia 39.6232
rfoot -17.6188 14.6174
rtoes 1.05783
lfemur -7.66647 1.30245 -15.7802
ltibia 50.2816
lfoot -16.8707 3.42863
ltoes -27.3008
377
root 2.11099 18.8142 8.10202 -182.617 7.40913 177.922
lowerback 1.94781 0.282626 3.42419
upperback 12.1328 1.8187 -0.461543
thorax 12.0429 1.90183 -2.11888
lowerneck -0.586598 -0.938587 5.80641
upperneck 26.0478 3.46163 -9.32073
head 8.33373 2.41522 -3.76752
rclavicle 9.54166e-015 -7.15625e-015
rhumerus -381.198 -19.3248 284.25
rradius 23.6076
rwrist 20.0289
rhand -10.089 10.6218
rfingers 7.12502
rthumb 15.898 -18.7456
lclavicle 9.54166e-015 -7.15625e-015
lhumerus -37.2552 -33.3205 85.3732
lradius 31.6631
lwrist -35.9479
lhand -6.98361 3.84977
lfingers 7.12502
lthumb 18.8866 32.9529
rfemur -16.4775 -3.14954 14.7485
rtibia 39.3643
rfoot -17.2783 14.5787
rtoes 1.27875
lfemur -6.85885 1.75602 -15.8435
ltibia 49.5093
lfoot -16.7817 3.20052
ltoes -27.7186
